<svg width="16" height="15" viewBox="0 0 16 15" fill="none" xmlns="http://www.w3.org/2000/svg">
<path d="M0 8.5C0 8.23478 0.105357 7.98043 0.292893 7.79289C0.48043 7.60536 0.734784 7.5 1 7.5H3C3.26522 7.5 3.51957 7.60536 3.70711 7.79289C3.89464 7.98043 4 8.23478 4 8.5V13.5C4 13.7652 3.89464 14.0196 3.70711 14.2071C3.51957 14.3946 3.26522 14.5 3 14.5H1C0.734784 14.5 0.48043 14.3946 0.292893 14.2071C0.105357 14.0196 0 13.7652 0 13.5V8.5ZM6 4.5C6 4.23478 6.10536 3.98043 6.29289 3.79289C6.48043 3.60536 6.73478 3.5 7 3.5H9C9.26522 3.5 9.51957 3.60536 9.70711 3.79289C9.89464 3.98043 10 4.23478 10 4.5V13.5C10 13.7652 9.89464 14.0196 9.70711 14.2071C9.51957 14.3946 9.26522 14.5 9 14.5H7C6.73478 14.5 6.48043 14.3946 6.29289 14.2071C6.10536 14.0196 6 13.7652 6 13.5V4.5ZM12 1.5C12 1.23478 12.1054 0.98043 12.2929 0.792893C12.4804 0.605357 12.7348 0.5 13 0.5H15C15.2652 0.5 15.5196 0.605357 15.7071 0.792893C15.8946 0.98043 16 1.23478 16 1.5V13.5C16 13.7652 15.8946 14.0196 15.7071 14.2071C15.5196 14.3946 15.2652 14.5 15 14.5H13C12.7348 14.5 12.4804 14.3946 12.2929 14.2071C12.1054 14.0196 12 13.7652 12 13.5V1.5Z" fill="#C2C9D1"/>
<path d="M0 8.5C0 8.23478 0.105357 7.98043 0.292893 7.79289C0.48043 7.60536 0.734784 7.5 1 7.5H3C3.26522 7.5 3.51957 7.60536 3.70711 7.79289C3.89464 7.98043 4 8.23478 4 8.5V13.5C4 13.7652 3.89464 14.0196 3.70711 14.2071C3.51957 14.3946 3.26522 14.5 3 14.5H1C0.734784 14.5 0.48043 14.3946 0.292893 14.2071C0.105357 14.0196 0 13.7652 0 13.5V8.5ZM6 4.5C6 4.23478 6.10536 3.98043 6.29289 3.79289C6.48043 3.60536 6.73478 3.5 7 3.5H9C9.26522 3.5 9.51957 3.60536 9.70711 3.79289C9.89464 3.98043 10 4.23478 10 4.5V13.5C10 13.7652 9.89464 14.0196 9.70711 14.2071C9.51957 14.3946 9.26522 14.5 9 14.5H7C6.73478 14.5 6.48043 14.3946 6.29289 14.2071C6.10536 14.0196 6 13.7652 6 13.5V4.5ZM12 1.5C12 1.23478 12.1054 0.98043 12.2929 0.792893C12.4804 0.605357 12.7348 0.5 13 0.5H15C15.2652 0.5 15.5196 0.605357 15.7071 0.792893C15.8946 0.98043 16 1.23478 16 1.5V13.5C16 13.7652 15.8946 14.0196 15.7071 14.2071C15.5196 14.3946 15.2652 14.5 15 14.5H13C12.7348 14.5 12.4804 14.3946 12.2929 14.2071C12.1054 14.0196 12 13.7652 12 13.5V1.5Z" fill="white" fill-opacity="0.9"/>
</svg>
