<svg width="17" height="20" viewBox="0 0 17 20" fill="none" xmlns="http://www.w3.org/2000/svg">
<path d="M8.39974 0C6.49019 0 4.65884 0.758569 3.30858 2.10883C1.95831 3.45909 1.19974 5.29044 1.19974 7.2V11.5032L0.351344 12.3516C0.183573 12.5194 0.0693252 12.7332 0.0230442 12.966C-0.0232369 13.1987 0.000526741 13.4399 0.0913308 13.6592C0.182135 13.8784 0.335902 14.0658 0.533194 14.1977C0.730486 14.3295 0.962444 14.4 1.19974 14.4H15.5997C15.837 14.4 16.069 14.3295 16.2663 14.1977C16.4636 14.0658 16.6174 13.8784 16.7082 13.6592C16.799 13.4399 16.8227 13.1987 16.7764 12.966C16.7302 12.7332 16.6159 12.5194 16.4481 12.3516L15.5997 11.5032V7.2C15.5997 5.29044 14.8412 3.45909 13.4909 2.10883C12.1407 0.758569 10.3093 0 8.39974 0ZM8.39974 19.2C7.44496 19.2 6.52929 18.8207 5.85416 18.1456C5.17903 17.4705 4.79974 16.5548 4.79974 15.6H11.9997C11.9997 16.5548 11.6205 17.4705 10.9453 18.1456C10.2702 18.8207 9.35452 19.2 8.39974 19.2Z" fill="#225560"/>
</svg>
