<svg width="13" height="12" viewBox="0 0 13 12" fill="none" xmlns="http://www.w3.org/2000/svg">
<path d="M6.5 3.77778V6L8.33333 7.66667M12 6C12 6.65661 11.8577 7.30679 11.5813 7.91342C11.3049 8.52005 10.8998 9.07124 10.3891 9.53553C9.87836 9.99983 9.27205 10.3681 8.60476 10.6194C7.93747 10.8707 7.22227 11 6.5 11C5.77773 11 5.06253 10.8707 4.39524 10.6194C3.72795 10.3681 3.12163 9.99983 2.61091 9.53553C2.10019 9.07124 1.69506 8.52005 1.41866 7.91342C1.14226 7.30679 1 6.65661 1 6C1 4.67392 1.57946 3.40215 2.61091 2.46447C3.64236 1.52678 5.04131 1 6.5 1C7.95869 1 9.35764 1.52678 10.3891 2.46447C11.4205 3.40215 12 4.67392 12 6Z" stroke="#C2C9D1" stroke-width="0.8" stroke-linecap="round" stroke-linejoin="round"/>
<path d="M6.5 3.77778V6L8.33333 7.66667M12 6C12 6.65661 11.8577 7.30679 11.5813 7.91342C11.3049 8.52005 10.8998 9.07124 10.3891 9.53553C9.87836 9.99983 9.27205 10.3681 8.60476 10.6194C7.93747 10.8707 7.22227 11 6.5 11C5.77773 11 5.06253 10.8707 4.39524 10.6194C3.72795 10.3681 3.12163 9.99983 2.61091 9.53553C2.10019 9.07124 1.69506 8.52005 1.41866 7.91342C1.14226 7.30679 1 6.65661 1 6C1 4.67392 1.57946 3.40215 2.61091 2.46447C3.64236 1.52678 5.04131 1 6.5 1C7.95869 1 9.35764 1.52678 10.3891 2.46447C11.4205 3.40215 12 4.67392 12 6Z" stroke="black" stroke-opacity="0.25" stroke-width="0.8" stroke-linecap="round" stroke-linejoin="round"/>
</svg>
