<svg width="187" height="15" viewBox="0 0 187 15" fill="none" xmlns="http://www.w3.org/2000/svg">
<path d="M5.53 11.07C4.56867 11.07 3.71933 10.86 2.982 10.44C2.254 10.0107 1.68467 9.42267 1.274 8.676C0.872667 7.92 0.672 7.05667 0.672 6.086C0.672 5.11533 0.872667 4.25667 1.274 3.51C1.68467 2.76333 2.254 2.18 2.982 1.76C3.71933 1.33067 4.56867 1.116 5.53 1.116C6.49133 1.116 7.336 1.33067 8.064 1.76C8.80133 2.18 9.37533 2.76333 9.786 3.51C10.1967 4.25667 10.402 5.11533 10.402 6.086C10.402 7.05667 10.1967 7.92 9.786 8.676C9.37533 9.42267 8.80133 10.0107 8.064 10.44C7.336 10.86 6.49133 11.07 5.53 11.07ZM5.53 10.482C6.398 10.482 7.14933 10.3 7.784 9.936C8.41867 9.56267 8.90867 9.04467 9.254 8.382C9.59933 7.71933 9.772 6.954 9.772 6.086C9.772 5.20867 9.59933 4.44333 9.254 3.79C8.90867 3.12733 8.41867 2.614 7.784 2.25C7.14933 1.87667 6.398 1.69 5.53 1.69C4.662 1.69 3.91067 1.87667 3.276 2.25C2.64133 2.614 2.15133 3.12733 1.806 3.79C1.46067 4.44333 1.288 5.20867 1.288 6.086C1.288 6.954 1.46067 7.71933 1.806 8.382C2.15133 9.04467 2.64133 9.56267 3.276 9.936C3.91067 10.3 4.662 10.482 5.53 10.482ZM5.544 9.306C4.97467 9.306 4.45667 9.18 3.99 8.928C3.53267 8.66667 3.164 8.298 2.884 7.822C2.61333 7.33667 2.478 6.75333 2.478 6.072C2.478 5.4 2.61333 4.826 2.884 4.35C3.164 3.86467 3.53267 3.496 3.99 3.244C4.45667 2.98267 4.97467 2.852 5.544 2.852C6.244 2.852 6.85533 3.04333 7.378 3.426C7.90067 3.80867 8.246 4.34533 8.414 5.036H7.098C6.986 4.672 6.78533 4.392 6.496 4.196C6.216 4 5.88933 3.902 5.516 3.902C5.02133 3.902 4.60133 4.084 4.256 4.448C3.91067 4.812 3.738 5.358 3.738 6.086C3.738 6.80467 3.91067 7.35067 4.256 7.724C4.60133 8.088 5.02133 8.27 5.516 8.27C5.908 8.27 6.23933 8.172 6.51 7.976C6.78067 7.77067 6.97667 7.49067 7.098 7.136H8.414C8.246 7.79867 7.90067 8.326 7.378 8.718C6.85533 9.11 6.244 9.306 5.544 9.306ZM19.9499 11.168C18.9792 11.168 18.1392 10.958 17.4299 10.538C16.7299 10.1087 16.1886 9.516 15.8059 8.76C15.4232 7.99467 15.2319 7.11267 15.2319 6.114C15.2319 5.106 15.4232 4.224 15.8059 3.468C16.1886 2.70267 16.7299 2.10533 17.4299 1.676C18.1392 1.24667 18.9792 1.032 19.9499 1.032C21.0979 1.032 22.0359 1.312 22.7639 1.872C23.4919 2.432 23.9539 3.216 24.1499 4.224H22.4979C22.3672 3.65467 22.0872 3.202 21.6579 2.866C21.2286 2.53 20.6546 2.362 19.9359 2.362C18.9559 2.362 18.1812 2.698 17.6119 3.37C17.0426 4.03267 16.7579 4.94733 16.7579 6.114C16.7579 7.27133 17.0426 8.18133 17.6119 8.844C18.1812 9.50667 18.9559 9.838 19.9359 9.838C20.6546 9.838 21.2286 9.67933 21.6579 9.362C22.0872 9.04467 22.3672 8.61067 22.4979 8.06H24.1499C23.9539 9.03067 23.4919 9.79133 22.7639 10.342C22.0359 10.8927 21.0979 11.168 19.9499 11.168ZM28.9731 11.168C28.3104 11.168 27.7131 11.0187 27.1811 10.72C26.6584 10.412 26.2431 9.98733 25.9351 9.446C25.6271 8.89533 25.4731 8.256 25.4731 7.528C25.4731 6.8 25.6271 6.16533 25.9351 5.624C26.2524 5.07333 26.6771 4.64867 27.2091 4.35C27.7411 4.042 28.3338 3.888 28.9871 3.888C29.6498 3.888 30.2424 4.042 30.7651 4.35C31.2971 4.64867 31.7171 5.07333 32.0251 5.624C32.3424 6.16533 32.5011 6.8 32.5011 7.528C32.5011 8.256 32.3424 8.89533 32.0251 9.446C31.7171 9.98733 31.2971 10.412 30.7651 10.72C30.2331 11.0187 29.6358 11.168 28.9731 11.168ZM28.9731 9.894C29.3278 9.894 29.6544 9.80533 29.9531 9.628C30.2611 9.45067 30.5084 9.18933 30.6951 8.844C30.8818 8.48933 30.9751 8.05067 30.9751 7.528C30.9751 7.00533 30.8818 6.57133 30.6951 6.226C30.5178 5.87133 30.2751 5.60533 29.9671 5.428C29.6684 5.25067 29.3418 5.162 28.9871 5.162C28.6324 5.162 28.3011 5.25067 27.9931 5.428C27.6944 5.60533 27.4518 5.87133 27.2651 6.226C27.0784 6.57133 26.9851 7.00533 26.9851 7.528C26.9851 8.05067 27.0784 8.48933 27.2651 8.844C27.4518 9.18933 27.6944 9.45067 27.9931 9.628C28.2918 9.80533 28.6184 9.894 28.9731 9.894ZM37.27 11.168C36.598 11.168 36.0053 11.0093 35.492 10.692C34.9786 10.3747 34.5773 9.94067 34.288 9.39C33.9986 8.83933 33.854 8.214 33.854 7.514C33.854 6.814 33.9986 6.19333 34.288 5.652C34.5773 5.10133 34.9786 4.672 35.492 4.364C36.0146 4.04667 36.612 3.888 37.284 3.888C37.8346 3.888 38.3153 3.99533 38.726 4.21C39.146 4.42467 39.4726 4.728 39.706 5.12V0.92H41.19V11H39.86L39.706 9.922C39.482 10.2487 39.174 10.538 38.782 10.79C38.39 11.042 37.886 11.168 37.27 11.168ZM37.536 9.88C38.1706 9.88 38.6886 9.66067 39.09 9.222C39.5006 8.78333 39.706 8.21867 39.706 7.528C39.706 6.828 39.5006 6.26333 39.09 5.834C38.6886 5.39533 38.1706 5.176 37.536 5.176C36.9013 5.176 36.3786 5.39533 35.968 5.834C35.5573 6.26333 35.352 6.828 35.352 7.528C35.352 7.98533 35.4453 8.39133 35.632 8.746C35.8186 9.10067 36.0753 9.38067 36.402 9.586C36.738 9.782 37.116 9.88 37.536 9.88ZM46.309 11.168C45.6277 11.168 45.021 11.0187 44.489 10.72C43.9664 10.412 43.5557 9.98733 43.257 9.446C42.9584 8.90467 42.809 8.27467 42.809 7.556C42.809 6.828 42.9537 6.18867 43.243 5.638C43.5417 5.08733 43.9524 4.658 44.475 4.35C45.007 4.042 45.623 3.888 46.323 3.888C47.0044 3.888 47.597 4.042 48.101 4.35C48.605 4.64867 48.997 5.05 49.277 5.554C49.557 6.058 49.697 6.61333 49.697 7.22C49.697 7.31333 49.6924 7.416 49.683 7.528C49.683 7.63067 49.6784 7.74733 49.669 7.878H44.265C44.3117 8.55 44.531 9.06333 44.923 9.418C45.3244 9.76333 45.7864 9.936 46.309 9.936C46.729 9.936 47.079 9.84267 47.359 9.656C47.6484 9.46 47.863 9.19867 48.003 8.872H49.487C49.3004 9.52533 48.927 10.0713 48.367 10.51C47.8164 10.9487 47.1304 11.168 46.309 11.168ZM46.309 5.106C45.8144 5.106 45.3757 5.25533 44.993 5.554C44.6104 5.84333 44.377 6.282 44.293 6.87H48.213C48.185 6.32867 47.9937 5.89933 47.639 5.582C47.2844 5.26467 46.841 5.106 46.309 5.106ZM52.9094 11L50.3054 4.056H51.8594L53.7914 9.586L55.7234 4.056H57.2634L54.6734 11H52.9094ZM59.3229 2.74C59.0429 2.74 58.8096 2.656 58.6229 2.488C58.4456 2.31067 58.3569 2.09133 58.3569 1.83C58.3569 1.56867 58.4456 1.354 58.6229 1.186C58.8096 1.00867 59.0429 0.92 59.3229 0.92C59.6029 0.92 59.8316 1.00867 60.0089 1.186C60.1956 1.354 60.2889 1.56867 60.2889 1.83C60.2889 2.09133 60.1956 2.31067 60.0089 2.488C59.8316 2.656 59.6029 2.74 59.3229 2.74ZM58.5809 11V4.056H60.0649V11H58.5809ZM62.0239 11V0.92H63.5079V11H62.0239ZM65.3872 11V0.92H66.8712V11H65.3872ZM71.1025 11.168C70.5145 11.168 70.0292 11.07 69.6465 10.874C69.2638 10.678 68.9792 10.4213 68.7925 10.104C68.6058 9.77733 68.5125 9.42267 68.5125 9.04C68.5125 8.368 68.7738 7.836 69.2965 7.444C69.8192 7.052 70.5658 6.856 71.5365 6.856H73.3565V6.73C73.3565 6.18867 73.2072 5.78267 72.9085 5.512C72.6192 5.24133 72.2412 5.106 71.7745 5.106C71.3638 5.106 71.0045 5.20867 70.6965 5.414C70.3978 5.61 70.2158 5.904 70.1505 6.296H68.6665C68.7132 5.792 68.8812 5.36267 69.1705 5.008C69.4692 4.644 69.8425 4.36867 70.2905 4.182C70.7478 3.986 71.2472 3.888 71.7885 3.888C72.7592 3.888 73.5105 4.14467 74.0425 4.658C74.5745 5.162 74.8405 5.85267 74.8405 6.73V11H73.5525L73.4265 9.81C73.2305 10.1927 72.9458 10.5147 72.5725 10.776C72.1992 11.0373 71.7092 11.168 71.1025 11.168ZM71.3965 9.964C71.7978 9.964 72.1338 9.87067 72.4045 9.684C72.6845 9.488 72.8992 9.23133 73.0485 8.914C73.2072 8.59667 73.3052 8.24667 73.3425 7.864H71.6905C71.1025 7.864 70.6825 7.96667 70.4305 8.172C70.1878 8.37733 70.0665 8.634 70.0665 8.942C70.0665 9.25933 70.1832 9.51133 70.4165 9.698C70.6592 9.87533 70.9858 9.964 71.3965 9.964ZM79.4128 8.872C79.0488 8.872 78.7128 8.83 78.4048 8.746L77.8028 9.334C77.9055 9.39933 78.0315 9.45533 78.1808 9.502C78.3301 9.54867 78.5401 9.59067 78.8108 9.628C79.0815 9.66533 79.4501 9.70267 79.9168 9.74C80.8408 9.824 81.5081 10.048 81.9188 10.412C82.3295 10.7667 82.5348 11.2427 82.5348 11.84C82.5348 12.2507 82.4228 12.638 82.1988 13.002C81.9841 13.3753 81.6435 13.674 81.1768 13.898C80.7195 14.1313 80.1315 14.248 79.4128 14.248C78.4421 14.248 77.6535 14.0613 77.0468 13.688C76.4495 13.324 76.1508 12.7687 76.1508 12.022C76.1508 11.7327 76.2255 11.4433 76.3748 11.154C76.5335 10.874 76.7808 10.608 77.1168 10.356C76.9208 10.272 76.7481 10.1833 76.5988 10.09C76.4588 9.98733 76.3328 9.88467 76.2208 9.782V9.446L77.4248 8.214C76.8835 7.74733 76.6128 7.136 76.6128 6.38C76.6128 5.92267 76.7201 5.50733 76.9348 5.134C77.1588 4.75133 77.4808 4.448 77.9008 4.224C78.3208 4 78.8248 3.888 79.4128 3.888C79.8048 3.888 80.1688 3.944 80.5048 4.056H83.0948V5.036L81.8628 5.106C82.0868 5.48867 82.1988 5.91333 82.1988 6.38C82.1988 6.84667 82.0868 7.26667 81.8628 7.64C81.6481 8.01333 81.3308 8.312 80.9108 8.536C80.5001 8.76 80.0008 8.872 79.4128 8.872ZM79.4128 7.71C79.8421 7.71 80.1875 7.598 80.4488 7.374C80.7195 7.14067 80.8548 6.814 80.8548 6.394C80.8548 5.96467 80.7195 5.638 80.4488 5.414C80.1875 5.19 79.8421 5.078 79.4128 5.078C78.9741 5.078 78.6195 5.19 78.3488 5.414C78.0875 5.638 77.9568 5.96467 77.9568 6.394C77.9568 6.814 78.0875 7.14067 78.3488 7.374C78.6195 7.598 78.9741 7.71 79.4128 7.71ZM77.5508 11.882C77.5508 12.2833 77.7281 12.582 78.0828 12.778C78.4375 12.9833 78.8808 13.086 79.4128 13.086C79.9261 13.086 80.3415 12.974 80.6588 12.75C80.9761 12.5353 81.1348 12.246 81.1348 11.882C81.1348 11.6113 81.0275 11.378 80.8128 11.182C80.5981 10.9953 80.1921 10.8787 79.5948 10.832C79.1468 10.804 78.7501 10.762 78.4048 10.706C78.0781 10.8833 77.8541 11.0747 77.7328 11.28C77.6115 11.4853 77.5508 11.686 77.5508 11.882ZM87.393 11.168C86.7117 11.168 86.105 11.0187 85.573 10.72C85.0504 10.412 84.6397 9.98733 84.341 9.446C84.0424 8.90467 83.893 8.27467 83.893 7.556C83.893 6.828 84.0377 6.18867 84.327 5.638C84.6257 5.08733 85.0364 4.658 85.559 4.35C86.091 4.042 86.707 3.888 87.407 3.888C88.0884 3.888 88.681 4.042 89.185 4.35C89.689 4.64867 90.081 5.05 90.361 5.554C90.641 6.058 90.781 6.61333 90.781 7.22C90.781 7.31333 90.7764 7.416 90.767 7.528C90.767 7.63067 90.7624 7.74733 90.753 7.878H85.349C85.3957 8.55 85.615 9.06333 86.007 9.418C86.4084 9.76333 86.8704 9.936 87.393 9.936C87.813 9.936 88.163 9.84267 88.443 9.656C88.7324 9.46 88.947 9.19867 89.087 8.872H90.571C90.3844 9.52533 90.011 10.0713 89.451 10.51C88.9004 10.9487 88.2144 11.168 87.393 11.168ZM87.393 5.106C86.8984 5.106 86.4597 5.25533 86.077 5.554C85.6944 5.84333 85.461 6.282 85.377 6.87H89.297C89.269 6.32867 89.0777 5.89933 88.723 5.582C88.3684 5.26467 87.925 5.106 87.393 5.106ZM95.9042 11V1.2H97.3882V11H95.9042ZM99.3208 11V4.056H100.637L100.749 5.274C100.963 4.84467 101.276 4.50867 101.687 4.266C102.107 4.014 102.587 3.888 103.129 3.888C103.969 3.888 104.627 4.14933 105.103 4.672C105.588 5.19467 105.831 5.974 105.831 7.01V11H104.361V7.164C104.361 5.82 103.81 5.148 102.709 5.148C102.158 5.148 101.701 5.344 101.337 5.736C100.982 6.128 100.805 6.688 100.805 7.416V11H99.3208ZM110.491 11C109.809 11 109.268 10.8367 108.867 10.51C108.465 10.174 108.265 9.58133 108.265 8.732V5.302H107.075V4.056H108.265L108.447 2.292H109.749V4.056H111.709V5.302H109.749V8.732C109.749 9.11467 109.828 9.38067 109.987 9.53C110.155 9.67 110.439 9.74 110.841 9.74H111.639V11H110.491ZM112.819 4.49L113.603 1.2H115.213L113.855 4.49H112.819ZM116.588 11V0.92H118.072V11H116.588ZM126.769 11.168C126.05 11.168 125.42 11.042 124.879 10.79C124.338 10.538 123.913 10.1787 123.605 9.712C123.306 9.24533 123.152 8.69 123.143 8.046H124.711C124.72 8.56867 124.902 9.012 125.257 9.376C125.612 9.74 126.111 9.922 126.755 9.922C127.324 9.922 127.768 9.78667 128.085 9.516C128.412 9.236 128.575 8.88133 128.575 8.452C128.575 8.10667 128.496 7.82667 128.337 7.612C128.188 7.39733 127.978 7.22 127.707 7.08C127.446 6.94 127.142 6.814 126.797 6.702C126.452 6.59 126.088 6.46867 125.705 6.338C124.949 6.086 124.38 5.75933 123.997 5.358C123.624 4.95667 123.437 4.42933 123.437 3.776C123.428 3.22533 123.554 2.74467 123.815 2.334C124.086 1.92333 124.459 1.606 124.935 1.382C125.42 1.14867 125.985 1.032 126.629 1.032C127.264 1.032 127.819 1.14867 128.295 1.382C128.78 1.61533 129.158 1.942 129.429 2.362C129.7 2.77267 129.84 3.25333 129.849 3.804H128.281C128.281 3.552 128.216 3.314 128.085 3.09C127.954 2.85667 127.763 2.66533 127.511 2.516C127.259 2.36667 126.951 2.292 126.587 2.292C126.12 2.28267 125.733 2.39933 125.425 2.642C125.126 2.88467 124.977 3.22067 124.977 3.65C124.977 4.03267 125.089 4.32667 125.313 4.532C125.537 4.73733 125.845 4.91 126.237 5.05C126.629 5.18067 127.077 5.33467 127.581 5.512C128.066 5.67067 128.5 5.862 128.883 6.086C129.266 6.31 129.569 6.604 129.793 6.968C130.026 7.332 130.143 7.794 130.143 8.354C130.143 8.84867 130.017 9.31067 129.765 9.74C129.513 10.16 129.135 10.5053 128.631 10.776C128.127 11.0373 127.506 11.168 126.769 11.168ZM134.999 11.168C134.318 11.168 133.707 11.014 133.165 10.706C132.633 10.398 132.213 9.97333 131.905 9.432C131.607 8.88133 131.457 8.24667 131.457 7.528C131.457 6.80933 131.607 6.17933 131.905 5.638C132.213 5.08733 132.633 4.658 133.165 4.35C133.707 4.042 134.318 3.888 134.999 3.888C135.858 3.888 136.577 4.112 137.155 4.56C137.743 5.008 138.121 5.61467 138.289 6.38H136.735C136.642 5.99733 136.437 5.69867 136.119 5.484C135.802 5.26933 135.429 5.162 134.999 5.162C134.635 5.162 134.299 5.25533 133.991 5.442C133.683 5.61933 133.436 5.88533 133.249 6.24C133.063 6.58533 132.969 7.01467 132.969 7.528C132.969 8.04133 133.063 8.47533 133.249 8.83C133.436 9.17533 133.683 9.44133 133.991 9.628C134.299 9.81467 134.635 9.908 134.999 9.908C135.429 9.908 135.802 9.80067 136.119 9.586C136.437 9.37133 136.642 9.068 136.735 8.676H138.289C138.131 9.42267 137.757 10.0247 137.169 10.482C136.581 10.9393 135.858 11.168 134.999 11.168ZM139.899 11V0.92H141.383V5.176C141.616 4.77467 141.938 4.462 142.349 4.238C142.769 4.00467 143.231 3.888 143.735 3.888C144.566 3.888 145.219 4.14933 145.695 4.672C146.171 5.19467 146.409 5.974 146.409 7.01V11H144.939V7.164C144.939 5.82 144.402 5.148 143.329 5.148C142.769 5.148 142.302 5.344 141.929 5.736C141.565 6.128 141.383 6.688 141.383 7.416V11H139.899ZM152.272 11.084C151.992 11.084 151.759 10.9953 151.572 10.818C151.395 10.6313 151.306 10.412 151.306 10.16C151.306 9.89867 151.395 9.67933 151.572 9.502C151.759 9.31533 151.992 9.222 152.272 9.222C152.552 9.222 152.781 9.31533 152.958 9.502C153.135 9.67933 153.224 9.89867 153.224 10.16C153.224 10.412 153.135 10.6313 152.958 10.818C152.781 10.9953 152.552 11.084 152.272 11.084ZM158.107 11V9.936C158.741 9.432 159.348 8.92333 159.927 8.41C160.505 7.89667 161.019 7.39267 161.467 6.898C161.924 6.394 162.283 5.904 162.545 5.428C162.806 4.94267 162.937 4.476 162.937 4.028C162.937 3.72933 162.885 3.44933 162.783 3.188C162.68 2.91733 162.512 2.70267 162.279 2.544C162.045 2.376 161.733 2.292 161.341 2.292C160.753 2.292 160.309 2.47867 160.011 2.852C159.721 3.22533 159.581 3.67333 159.591 4.196H158.149C158.158 3.50533 158.303 2.92667 158.583 2.46C158.872 1.99333 159.255 1.63867 159.731 1.396C160.216 1.15333 160.762 1.032 161.369 1.032C162.293 1.032 163.03 1.29333 163.581 1.816C164.141 2.32933 164.421 3.048 164.421 3.972C164.421 4.52267 164.285 5.06867 164.015 5.61C163.753 6.15133 163.408 6.674 162.979 7.178C162.559 7.67267 162.106 8.13933 161.621 8.578C161.135 9.01667 160.673 9.41333 160.235 9.768H164.715V11H158.107ZM170.125 11.168C169.238 11.168 168.473 10.958 167.829 10.538C167.194 10.1087 166.704 9.516 166.359 8.76C166.023 7.99467 165.855 7.108 165.855 6.1C165.855 5.092 166.023 4.21 166.359 3.454C166.704 2.68867 167.194 2.096 167.829 1.676C168.473 1.24667 169.238 1.032 170.125 1.032C171.012 1.032 171.772 1.24667 172.407 1.676C173.042 2.096 173.527 2.68867 173.863 3.454C174.208 4.21 174.381 5.092 174.381 6.1C174.381 7.108 174.208 7.99467 173.863 8.76C173.527 9.516 173.042 10.1087 172.407 10.538C171.772 10.958 171.012 11.168 170.125 11.168ZM170.125 9.838C170.657 9.838 171.128 9.68867 171.539 9.39C171.959 9.09133 172.286 8.662 172.519 8.102C172.752 7.542 172.869 6.87467 172.869 6.1C172.869 5.32533 172.752 4.658 172.519 4.098C172.286 3.538 171.959 3.10867 171.539 2.81C171.128 2.51133 170.657 2.362 170.125 2.362C169.584 2.362 169.108 2.51133 168.697 2.81C168.286 3.10867 167.964 3.538 167.731 4.098C167.498 4.658 167.381 5.32533 167.381 6.1C167.381 6.87467 167.498 7.542 167.731 8.102C167.964 8.662 168.286 9.09133 168.697 9.39C169.108 9.68867 169.584 9.838 170.125 9.838ZM175.73 11V9.936C176.364 9.432 176.971 8.92333 177.55 8.41C178.128 7.89667 178.642 7.39267 179.09 6.898C179.547 6.394 179.906 5.904 180.168 5.428C180.429 4.94267 180.56 4.476 180.56 4.028C180.56 3.72933 180.508 3.44933 180.406 3.188C180.303 2.91733 180.135 2.70267 179.902 2.544C179.668 2.376 179.356 2.292 178.964 2.292C178.376 2.292 177.932 2.47867 177.634 2.852C177.344 3.22533 177.204 3.67333 177.214 4.196H175.772C175.781 3.50533 175.926 2.92667 176.206 2.46C176.495 1.99333 176.878 1.63867 177.354 1.396C177.839 1.15333 178.385 1.032 178.992 1.032C179.916 1.032 180.653 1.29333 181.204 1.816C181.764 2.32933 182.044 3.048 182.044 3.972C182.044 4.52267 181.908 5.06867 181.638 5.61C181.376 6.15133 181.031 6.674 180.602 7.178C180.182 7.67267 179.729 8.13933 179.244 8.578C178.758 9.01667 178.296 9.41333 177.858 9.768H182.338V11H175.73ZM184.945 11V2.88L183.363 3.244V2.152L185.533 1.2H186.485V11H184.945Z" fill="#C2C9D1"/>
<path d="M5.53 11.07C4.56867 11.07 3.71933 10.86 2.982 10.44C2.254 10.0107 1.68467 9.42267 1.274 8.676C0.872667 7.92 0.672 7.05667 0.672 6.086C0.672 5.11533 0.872667 4.25667 1.274 3.51C1.68467 2.76333 2.254 2.18 2.982 1.76C3.71933 1.33067 4.56867 1.116 5.53 1.116C6.49133 1.116 7.336 1.33067 8.064 1.76C8.80133 2.18 9.37533 2.76333 9.786 3.51C10.1967 4.25667 10.402 5.11533 10.402 6.086C10.402 7.05667 10.1967 7.92 9.786 8.676C9.37533 9.42267 8.80133 10.0107 8.064 10.44C7.336 10.86 6.49133 11.07 5.53 11.07ZM5.53 10.482C6.398 10.482 7.14933 10.3 7.784 9.936C8.41867 9.56267 8.90867 9.04467 9.254 8.382C9.59933 7.71933 9.772 6.954 9.772 6.086C9.772 5.20867 9.59933 4.44333 9.254 3.79C8.90867 3.12733 8.41867 2.614 7.784 2.25C7.14933 1.87667 6.398 1.69 5.53 1.69C4.662 1.69 3.91067 1.87667 3.276 2.25C2.64133 2.614 2.15133 3.12733 1.806 3.79C1.46067 4.44333 1.288 5.20867 1.288 6.086C1.288 6.954 1.46067 7.71933 1.806 8.382C2.15133 9.04467 2.64133 9.56267 3.276 9.936C3.91067 10.3 4.662 10.482 5.53 10.482ZM5.544 9.306C4.97467 9.306 4.45667 9.18 3.99 8.928C3.53267 8.66667 3.164 8.298 2.884 7.822C2.61333 7.33667 2.478 6.75333 2.478 6.072C2.478 5.4 2.61333 4.826 2.884 4.35C3.164 3.86467 3.53267 3.496 3.99 3.244C4.45667 2.98267 4.97467 2.852 5.544 2.852C6.244 2.852 6.85533 3.04333 7.378 3.426C7.90067 3.80867 8.246 4.34533 8.414 5.036H7.098C6.986 4.672 6.78533 4.392 6.496 4.196C6.216 4 5.88933 3.902 5.516 3.902C5.02133 3.902 4.60133 4.084 4.256 4.448C3.91067 4.812 3.738 5.358 3.738 6.086C3.738 6.80467 3.91067 7.35067 4.256 7.724C4.60133 8.088 5.02133 8.27 5.516 8.27C5.908 8.27 6.23933 8.172 6.51 7.976C6.78067 7.77067 6.97667 7.49067 7.098 7.136H8.414C8.246 7.79867 7.90067 8.326 7.378 8.718C6.85533 9.11 6.244 9.306 5.544 9.306ZM19.9499 11.168C18.9792 11.168 18.1392 10.958 17.4299 10.538C16.7299 10.1087 16.1886 9.516 15.8059 8.76C15.4232 7.99467 15.2319 7.11267 15.2319 6.114C15.2319 5.106 15.4232 4.224 15.8059 3.468C16.1886 2.70267 16.7299 2.10533 17.4299 1.676C18.1392 1.24667 18.9792 1.032 19.9499 1.032C21.0979 1.032 22.0359 1.312 22.7639 1.872C23.4919 2.432 23.9539 3.216 24.1499 4.224H22.4979C22.3672 3.65467 22.0872 3.202 21.6579 2.866C21.2286 2.53 20.6546 2.362 19.9359 2.362C18.9559 2.362 18.1812 2.698 17.6119 3.37C17.0426 4.03267 16.7579 4.94733 16.7579 6.114C16.7579 7.27133 17.0426 8.18133 17.6119 8.844C18.1812 9.50667 18.9559 9.838 19.9359 9.838C20.6546 9.838 21.2286 9.67933 21.6579 9.362C22.0872 9.04467 22.3672 8.61067 22.4979 8.06H24.1499C23.9539 9.03067 23.4919 9.79133 22.7639 10.342C22.0359 10.8927 21.0979 11.168 19.9499 11.168ZM28.9731 11.168C28.3104 11.168 27.7131 11.0187 27.1811 10.72C26.6584 10.412 26.2431 9.98733 25.9351 9.446C25.6271 8.89533 25.4731 8.256 25.4731 7.528C25.4731 6.8 25.6271 6.16533 25.9351 5.624C26.2524 5.07333 26.6771 4.64867 27.2091 4.35C27.7411 4.042 28.3338 3.888 28.9871 3.888C29.6498 3.888 30.2424 4.042 30.7651 4.35C31.2971 4.64867 31.7171 5.07333 32.0251 5.624C32.3424 6.16533 32.5011 6.8 32.5011 7.528C32.5011 8.256 32.3424 8.89533 32.0251 9.446C31.7171 9.98733 31.2971 10.412 30.7651 10.72C30.2331 11.0187 29.6358 11.168 28.9731 11.168ZM28.9731 9.894C29.3278 9.894 29.6544 9.80533 29.9531 9.628C30.2611 9.45067 30.5084 9.18933 30.6951 8.844C30.8818 8.48933 30.9751 8.05067 30.9751 7.528C30.9751 7.00533 30.8818 6.57133 30.6951 6.226C30.5178 5.87133 30.2751 5.60533 29.9671 5.428C29.6684 5.25067 29.3418 5.162 28.9871 5.162C28.6324 5.162 28.3011 5.25067 27.9931 5.428C27.6944 5.60533 27.4518 5.87133 27.2651 6.226C27.0784 6.57133 26.9851 7.00533 26.9851 7.528C26.9851 8.05067 27.0784 8.48933 27.2651 8.844C27.4518 9.18933 27.6944 9.45067 27.9931 9.628C28.2918 9.80533 28.6184 9.894 28.9731 9.894ZM37.27 11.168C36.598 11.168 36.0053 11.0093 35.492 10.692C34.9786 10.3747 34.5773 9.94067 34.288 9.39C33.9986 8.83933 33.854 8.214 33.854 7.514C33.854 6.814 33.9986 6.19333 34.288 5.652C34.5773 5.10133 34.9786 4.672 35.492 4.364C36.0146 4.04667 36.612 3.888 37.284 3.888C37.8346 3.888 38.3153 3.99533 38.726 4.21C39.146 4.42467 39.4726 4.728 39.706 5.12V0.92H41.19V11H39.86L39.706 9.922C39.482 10.2487 39.174 10.538 38.782 10.79C38.39 11.042 37.886 11.168 37.27 11.168ZM37.536 9.88C38.1706 9.88 38.6886 9.66067 39.09 9.222C39.5006 8.78333 39.706 8.21867 39.706 7.528C39.706 6.828 39.5006 6.26333 39.09 5.834C38.6886 5.39533 38.1706 5.176 37.536 5.176C36.9013 5.176 36.3786 5.39533 35.968 5.834C35.5573 6.26333 35.352 6.828 35.352 7.528C35.352 7.98533 35.4453 8.39133 35.632 8.746C35.8186 9.10067 36.0753 9.38067 36.402 9.586C36.738 9.782 37.116 9.88 37.536 9.88ZM46.309 11.168C45.6277 11.168 45.021 11.0187 44.489 10.72C43.9664 10.412 43.5557 9.98733 43.257 9.446C42.9584 8.90467 42.809 8.27467 42.809 7.556C42.809 6.828 42.9537 6.18867 43.243 5.638C43.5417 5.08733 43.9524 4.658 44.475 4.35C45.007 4.042 45.623 3.888 46.323 3.888C47.0044 3.888 47.597 4.042 48.101 4.35C48.605 4.64867 48.997 5.05 49.277 5.554C49.557 6.058 49.697 6.61333 49.697 7.22C49.697 7.31333 49.6924 7.416 49.683 7.528C49.683 7.63067 49.6784 7.74733 49.669 7.878H44.265C44.3117 8.55 44.531 9.06333 44.923 9.418C45.3244 9.76333 45.7864 9.936 46.309 9.936C46.729 9.936 47.079 9.84267 47.359 9.656C47.6484 9.46 47.863 9.19867 48.003 8.872H49.487C49.3004 9.52533 48.927 10.0713 48.367 10.51C47.8164 10.9487 47.1304 11.168 46.309 11.168ZM46.309 5.106C45.8144 5.106 45.3757 5.25533 44.993 5.554C44.6104 5.84333 44.377 6.282 44.293 6.87H48.213C48.185 6.32867 47.9937 5.89933 47.639 5.582C47.2844 5.26467 46.841 5.106 46.309 5.106ZM52.9094 11L50.3054 4.056H51.8594L53.7914 9.586L55.7234 4.056H57.2634L54.6734 11H52.9094ZM59.3229 2.74C59.0429 2.74 58.8096 2.656 58.6229 2.488C58.4456 2.31067 58.3569 2.09133 58.3569 1.83C58.3569 1.56867 58.4456 1.354 58.6229 1.186C58.8096 1.00867 59.0429 0.92 59.3229 0.92C59.6029 0.92 59.8316 1.00867 60.0089 1.186C60.1956 1.354 60.2889 1.56867 60.2889 1.83C60.2889 2.09133 60.1956 2.31067 60.0089 2.488C59.8316 2.656 59.6029 2.74 59.3229 2.74ZM58.5809 11V4.056H60.0649V11H58.5809ZM62.0239 11V0.92H63.5079V11H62.0239ZM65.3872 11V0.92H66.8712V11H65.3872ZM71.1025 11.168C70.5145 11.168 70.0292 11.07 69.6465 10.874C69.2638 10.678 68.9792 10.4213 68.7925 10.104C68.6058 9.77733 68.5125 9.42267 68.5125 9.04C68.5125 8.368 68.7738 7.836 69.2965 7.444C69.8192 7.052 70.5658 6.856 71.5365 6.856H73.3565V6.73C73.3565 6.18867 73.2072 5.78267 72.9085 5.512C72.6192 5.24133 72.2412 5.106 71.7745 5.106C71.3638 5.106 71.0045 5.20867 70.6965 5.414C70.3978 5.61 70.2158 5.904 70.1505 6.296H68.6665C68.7132 5.792 68.8812 5.36267 69.1705 5.008C69.4692 4.644 69.8425 4.36867 70.2905 4.182C70.7478 3.986 71.2472 3.888 71.7885 3.888C72.7592 3.888 73.5105 4.14467 74.0425 4.658C74.5745 5.162 74.8405 5.85267 74.8405 6.73V11H73.5525L73.4265 9.81C73.2305 10.1927 72.9458 10.5147 72.5725 10.776C72.1992 11.0373 71.7092 11.168 71.1025 11.168ZM71.3965 9.964C71.7978 9.964 72.1338 9.87067 72.4045 9.684C72.6845 9.488 72.8992 9.23133 73.0485 8.914C73.2072 8.59667 73.3052 8.24667 73.3425 7.864H71.6905C71.1025 7.864 70.6825 7.96667 70.4305 8.172C70.1878 8.37733 70.0665 8.634 70.0665 8.942C70.0665 9.25933 70.1832 9.51133 70.4165 9.698C70.6592 9.87533 70.9858 9.964 71.3965 9.964ZM79.4128 8.872C79.0488 8.872 78.7128 8.83 78.4048 8.746L77.8028 9.334C77.9055 9.39933 78.0315 9.45533 78.1808 9.502C78.3301 9.54867 78.5401 9.59067 78.8108 9.628C79.0815 9.66533 79.4501 9.70267 79.9168 9.74C80.8408 9.824 81.5081 10.048 81.9188 10.412C82.3295 10.7667 82.5348 11.2427 82.5348 11.84C82.5348 12.2507 82.4228 12.638 82.1988 13.002C81.9841 13.3753 81.6435 13.674 81.1768 13.898C80.7195 14.1313 80.1315 14.248 79.4128 14.248C78.4421 14.248 77.6535 14.0613 77.0468 13.688C76.4495 13.324 76.1508 12.7687 76.1508 12.022C76.1508 11.7327 76.2255 11.4433 76.3748 11.154C76.5335 10.874 76.7808 10.608 77.1168 10.356C76.9208 10.272 76.7481 10.1833 76.5988 10.09C76.4588 9.98733 76.3328 9.88467 76.2208 9.782V9.446L77.4248 8.214C76.8835 7.74733 76.6128 7.136 76.6128 6.38C76.6128 5.92267 76.7201 5.50733 76.9348 5.134C77.1588 4.75133 77.4808 4.448 77.9008 4.224C78.3208 4 78.8248 3.888 79.4128 3.888C79.8048 3.888 80.1688 3.944 80.5048 4.056H83.0948V5.036L81.8628 5.106C82.0868 5.48867 82.1988 5.91333 82.1988 6.38C82.1988 6.84667 82.0868 7.26667 81.8628 7.64C81.6481 8.01333 81.3308 8.312 80.9108 8.536C80.5001 8.76 80.0008 8.872 79.4128 8.872ZM79.4128 7.71C79.8421 7.71 80.1875 7.598 80.4488 7.374C80.7195 7.14067 80.8548 6.814 80.8548 6.394C80.8548 5.96467 80.7195 5.638 80.4488 5.414C80.1875 5.19 79.8421 5.078 79.4128 5.078C78.9741 5.078 78.6195 5.19 78.3488 5.414C78.0875 5.638 77.9568 5.96467 77.9568 6.394C77.9568 6.814 78.0875 7.14067 78.3488 7.374C78.6195 7.598 78.9741 7.71 79.4128 7.71ZM77.5508 11.882C77.5508 12.2833 77.7281 12.582 78.0828 12.778C78.4375 12.9833 78.8808 13.086 79.4128 13.086C79.9261 13.086 80.3415 12.974 80.6588 12.75C80.9761 12.5353 81.1348 12.246 81.1348 11.882C81.1348 11.6113 81.0275 11.378 80.8128 11.182C80.5981 10.9953 80.1921 10.8787 79.5948 10.832C79.1468 10.804 78.7501 10.762 78.4048 10.706C78.0781 10.8833 77.8541 11.0747 77.7328 11.28C77.6115 11.4853 77.5508 11.686 77.5508 11.882ZM87.393 11.168C86.7117 11.168 86.105 11.0187 85.573 10.72C85.0504 10.412 84.6397 9.98733 84.341 9.446C84.0424 8.90467 83.893 8.27467 83.893 7.556C83.893 6.828 84.0377 6.18867 84.327 5.638C84.6257 5.08733 85.0364 4.658 85.559 4.35C86.091 4.042 86.707 3.888 87.407 3.888C88.0884 3.888 88.681 4.042 89.185 4.35C89.689 4.64867 90.081 5.05 90.361 5.554C90.641 6.058 90.781 6.61333 90.781 7.22C90.781 7.31333 90.7764 7.416 90.767 7.528C90.767 7.63067 90.7624 7.74733 90.753 7.878H85.349C85.3957 8.55 85.615 9.06333 86.007 9.418C86.4084 9.76333 86.8704 9.936 87.393 9.936C87.813 9.936 88.163 9.84267 88.443 9.656C88.7324 9.46 88.947 9.19867 89.087 8.872H90.571C90.3844 9.52533 90.011 10.0713 89.451 10.51C88.9004 10.9487 88.2144 11.168 87.393 11.168ZM87.393 5.106C86.8984 5.106 86.4597 5.25533 86.077 5.554C85.6944 5.84333 85.461 6.282 85.377 6.87H89.297C89.269 6.32867 89.0777 5.89933 88.723 5.582C88.3684 5.26467 87.925 5.106 87.393 5.106ZM95.9042 11V1.2H97.3882V11H95.9042ZM99.3208 11V4.056H100.637L100.749 5.274C100.963 4.84467 101.276 4.50867 101.687 4.266C102.107 4.014 102.587 3.888 103.129 3.888C103.969 3.888 104.627 4.14933 105.103 4.672C105.588 5.19467 105.831 5.974 105.831 7.01V11H104.361V7.164C104.361 5.82 103.81 5.148 102.709 5.148C102.158 5.148 101.701 5.344 101.337 5.736C100.982 6.128 100.805 6.688 100.805 7.416V11H99.3208ZM110.491 11C109.809 11 109.268 10.8367 108.867 10.51C108.465 10.174 108.265 9.58133 108.265 8.732V5.302H107.075V4.056H108.265L108.447 2.292H109.749V4.056H111.709V5.302H109.749V8.732C109.749 9.11467 109.828 9.38067 109.987 9.53C110.155 9.67 110.439 9.74 110.841 9.74H111.639V11H110.491ZM112.819 4.49L113.603 1.2H115.213L113.855 4.49H112.819ZM116.588 11V0.92H118.072V11H116.588ZM126.769 11.168C126.05 11.168 125.42 11.042 124.879 10.79C124.338 10.538 123.913 10.1787 123.605 9.712C123.306 9.24533 123.152 8.69 123.143 8.046H124.711C124.72 8.56867 124.902 9.012 125.257 9.376C125.612 9.74 126.111 9.922 126.755 9.922C127.324 9.922 127.768 9.78667 128.085 9.516C128.412 9.236 128.575 8.88133 128.575 8.452C128.575 8.10667 128.496 7.82667 128.337 7.612C128.188 7.39733 127.978 7.22 127.707 7.08C127.446 6.94 127.142 6.814 126.797 6.702C126.452 6.59 126.088 6.46867 125.705 6.338C124.949 6.086 124.38 5.75933 123.997 5.358C123.624 4.95667 123.437 4.42933 123.437 3.776C123.428 3.22533 123.554 2.74467 123.815 2.334C124.086 1.92333 124.459 1.606 124.935 1.382C125.42 1.14867 125.985 1.032 126.629 1.032C127.264 1.032 127.819 1.14867 128.295 1.382C128.78 1.61533 129.158 1.942 129.429 2.362C129.7 2.77267 129.84 3.25333 129.849 3.804H128.281C128.281 3.552 128.216 3.314 128.085 3.09C127.954 2.85667 127.763 2.66533 127.511 2.516C127.259 2.36667 126.951 2.292 126.587 2.292C126.12 2.28267 125.733 2.39933 125.425 2.642C125.126 2.88467 124.977 3.22067 124.977 3.65C124.977 4.03267 125.089 4.32667 125.313 4.532C125.537 4.73733 125.845 4.91 126.237 5.05C126.629 5.18067 127.077 5.33467 127.581 5.512C128.066 5.67067 128.5 5.862 128.883 6.086C129.266 6.31 129.569 6.604 129.793 6.968C130.026 7.332 130.143 7.794 130.143 8.354C130.143 8.84867 130.017 9.31067 129.765 9.74C129.513 10.16 129.135 10.5053 128.631 10.776C128.127 11.0373 127.506 11.168 126.769 11.168ZM134.999 11.168C134.318 11.168 133.707 11.014 133.165 10.706C132.633 10.398 132.213 9.97333 131.905 9.432C131.607 8.88133 131.457 8.24667 131.457 7.528C131.457 6.80933 131.607 6.17933 131.905 5.638C132.213 5.08733 132.633 4.658 133.165 4.35C133.707 4.042 134.318 3.888 134.999 3.888C135.858 3.888 136.577 4.112 137.155 4.56C137.743 5.008 138.121 5.61467 138.289 6.38H136.735C136.642 5.99733 136.437 5.69867 136.119 5.484C135.802 5.26933 135.429 5.162 134.999 5.162C134.635 5.162 134.299 5.25533 133.991 5.442C133.683 5.61933 133.436 5.88533 133.249 6.24C133.063 6.58533 132.969 7.01467 132.969 7.528C132.969 8.04133 133.063 8.47533 133.249 8.83C133.436 9.17533 133.683 9.44133 133.991 9.628C134.299 9.81467 134.635 9.908 134.999 9.908C135.429 9.908 135.802 9.80067 136.119 9.586C136.437 9.37133 136.642 9.068 136.735 8.676H138.289C138.131 9.42267 137.757 10.0247 137.169 10.482C136.581 10.9393 135.858 11.168 134.999 11.168ZM139.899 11V0.92H141.383V5.176C141.616 4.77467 141.938 4.462 142.349 4.238C142.769 4.00467 143.231 3.888 143.735 3.888C144.566 3.888 145.219 4.14933 145.695 4.672C146.171 5.19467 146.409 5.974 146.409 7.01V11H144.939V7.164C144.939 5.82 144.402 5.148 143.329 5.148C142.769 5.148 142.302 5.344 141.929 5.736C141.565 6.128 141.383 6.688 141.383 7.416V11H139.899ZM152.272 11.084C151.992 11.084 151.759 10.9953 151.572 10.818C151.395 10.6313 151.306 10.412 151.306 10.16C151.306 9.89867 151.395 9.67933 151.572 9.502C151.759 9.31533 151.992 9.222 152.272 9.222C152.552 9.222 152.781 9.31533 152.958 9.502C153.135 9.67933 153.224 9.89867 153.224 10.16C153.224 10.412 153.135 10.6313 152.958 10.818C152.781 10.9953 152.552 11.084 152.272 11.084ZM158.107 11V9.936C158.741 9.432 159.348 8.92333 159.927 8.41C160.505 7.89667 161.019 7.39267 161.467 6.898C161.924 6.394 162.283 5.904 162.545 5.428C162.806 4.94267 162.937 4.476 162.937 4.028C162.937 3.72933 162.885 3.44933 162.783 3.188C162.68 2.91733 162.512 2.70267 162.279 2.544C162.045 2.376 161.733 2.292 161.341 2.292C160.753 2.292 160.309 2.47867 160.011 2.852C159.721 3.22533 159.581 3.67333 159.591 4.196H158.149C158.158 3.50533 158.303 2.92667 158.583 2.46C158.872 1.99333 159.255 1.63867 159.731 1.396C160.216 1.15333 160.762 1.032 161.369 1.032C162.293 1.032 163.03 1.29333 163.581 1.816C164.141 2.32933 164.421 3.048 164.421 3.972C164.421 4.52267 164.285 5.06867 164.015 5.61C163.753 6.15133 163.408 6.674 162.979 7.178C162.559 7.67267 162.106 8.13933 161.621 8.578C161.135 9.01667 160.673 9.41333 160.235 9.768H164.715V11H158.107ZM170.125 11.168C169.238 11.168 168.473 10.958 167.829 10.538C167.194 10.1087 166.704 9.516 166.359 8.76C166.023 7.99467 165.855 7.108 165.855 6.1C165.855 5.092 166.023 4.21 166.359 3.454C166.704 2.68867 167.194 2.096 167.829 1.676C168.473 1.24667 169.238 1.032 170.125 1.032C171.012 1.032 171.772 1.24667 172.407 1.676C173.042 2.096 173.527 2.68867 173.863 3.454C174.208 4.21 174.381 5.092 174.381 6.1C174.381 7.108 174.208 7.99467 173.863 8.76C173.527 9.516 173.042 10.1087 172.407 10.538C171.772 10.958 171.012 11.168 170.125 11.168ZM170.125 9.838C170.657 9.838 171.128 9.68867 171.539 9.39C171.959 9.09133 172.286 8.662 172.519 8.102C172.752 7.542 172.869 6.87467 172.869 6.1C172.869 5.32533 172.752 4.658 172.519 4.098C172.286 3.538 171.959 3.10867 171.539 2.81C171.128 2.51133 170.657 2.362 170.125 2.362C169.584 2.362 169.108 2.51133 168.697 2.81C168.286 3.10867 167.964 3.538 167.731 4.098C167.498 4.658 167.381 5.32533 167.381 6.1C167.381 6.87467 167.498 7.542 167.731 8.102C167.964 8.662 168.286 9.09133 168.697 9.39C169.108 9.68867 169.584 9.838 170.125 9.838ZM175.73 11V9.936C176.364 9.432 176.971 8.92333 177.55 8.41C178.128 7.89667 178.642 7.39267 179.09 6.898C179.547 6.394 179.906 5.904 180.168 5.428C180.429 4.94267 180.56 4.476 180.56 4.028C180.56 3.72933 180.508 3.44933 180.406 3.188C180.303 2.91733 180.135 2.70267 179.902 2.544C179.668 2.376 179.356 2.292 178.964 2.292C178.376 2.292 177.932 2.47867 177.634 2.852C177.344 3.22533 177.204 3.67333 177.214 4.196H175.772C175.781 3.50533 175.926 2.92667 176.206 2.46C176.495 1.99333 176.878 1.63867 177.354 1.396C177.839 1.15333 178.385 1.032 178.992 1.032C179.916 1.032 180.653 1.29333 181.204 1.816C181.764 2.32933 182.044 3.048 182.044 3.972C182.044 4.52267 181.908 5.06867 181.638 5.61C181.376 6.15133 181.031 6.674 180.602 7.178C180.182 7.67267 179.729 8.13933 179.244 8.578C178.758 9.01667 178.296 9.41333 177.858 9.768H182.338V11H175.73ZM184.945 11V2.88L183.363 3.244V2.152L185.533 1.2H186.485V11H184.945Z" fill="white" fill-opacity="0.95"/>
</svg>
