<svg width="17" height="13" viewBox="0 0 17 13" fill="none" xmlns="http://www.w3.org/2000/svg">
<path d="M12.6 4.2V2.6C12.6 2.17565 12.4315 1.76869 12.1314 1.46863C11.8313 1.16857 11.4244 1 11 1H3.00002C2.57568 1 2.16871 1.16857 1.86865 1.46863C1.5686 1.76869 1.40002 2.17565 1.40002 2.6V7.4C1.40002 7.82435 1.5686 8.23131 1.86865 8.53137C2.16871 8.83143 2.57568 9 3.00002 9H4.60002M6.20002 12.2H14.2C14.6244 12.2 15.0313 12.0314 15.3314 11.7314C15.6315 11.4313 15.8 11.0243 15.8 10.6V5.8C15.8 5.37565 15.6315 4.96869 15.3314 4.66863C15.0313 4.36857 14.6244 4.2 14.2 4.2H6.20002C5.77568 4.2 5.36871 4.36857 5.06865 4.66863C4.76859 4.96869 4.60002 5.37565 4.60002 5.8V10.6C4.60002 11.0243 4.76859 11.4313 5.06865 11.7314C5.36871 12.0314 5.77568 12.2 6.20002 12.2ZM11.8 8.2C11.8 8.62435 11.6315 9.03131 11.3314 9.33137C11.0313 9.63143 10.6244 9.8 10.2 9.8C9.77568 9.8 9.36871 9.63143 9.06865 9.33137C8.76859 9.03131 8.60002 8.62435 8.60002 8.2C8.60002 7.77566 8.76859 7.36869 9.06865 7.06863C9.36871 6.76857 9.77568 6.6 10.2 6.6C10.6244 6.6 11.0313 6.76857 11.3314 7.06863C11.6315 7.36869 11.8 7.77566 11.8 8.2Z" stroke="#225560" stroke-width="1.5" stroke-linecap="round" stroke-linejoin="round"/>
</svg>
