<svg width="14" height="17" viewBox="0 0 14 17" fill="none" xmlns="http://www.w3.org/2000/svg">
<path d="M7.00003 0.5C5.40873 0.5 3.88261 1.13214 2.75739 2.25736C1.63217 3.38258 1.00003 4.9087 1.00003 6.5V10.086L0.293031 10.793C0.153222 10.9329 0.0580152 11.111 0.0194476 11.305C-0.0191199 11.4989 0.000683092 11.7 0.0763531 11.8827C0.152023 12.0654 0.280163 12.2215 0.444573 12.3314C0.608982 12.4413 0.802281 12.5 1.00003 12.5H13C13.1978 12.5 13.3911 12.4413 13.5555 12.3314C13.7199 12.2215 13.848 12.0654 13.9237 11.8827C13.9994 11.7 14.0192 11.4989 13.9806 11.305C13.942 11.111 13.8468 10.9329 13.707 10.793L13 10.086V6.5C13 4.9087 12.3679 3.38258 11.2427 2.25736C10.1175 1.13214 8.59133 0.5 7.00003 0.5ZM7.00003 16.5C6.20438 16.5 5.44132 16.1839 4.87871 15.6213C4.3161 15.0587 4.00003 14.2956 4.00003 13.5H10C10 14.2956 9.68396 15.0587 9.12135 15.6213C8.55874 16.1839 7.79568 16.5 7.00003 16.5Z" fill="white"/>
</svg>
