<svg width="18" height="15" viewBox="0 0 18 15" fill="none" xmlns="http://www.w3.org/2000/svg">
<path d="M8 3.5C8 4.29565 7.68393 5.05871 7.12132 5.62132C6.55871 6.18393 5.79565 6.5 5 6.5C4.20435 6.5 3.44129 6.18393 2.87868 5.62132C2.31607 5.05871 2 4.29565 2 3.5C2 2.70435 2.31607 1.94129 2.87868 1.37868C3.44129 0.816071 4.20435 0.5 5 0.5C5.79565 0.5 6.55871 0.816071 7.12132 1.37868C7.68393 1.94129 8 2.70435 8 3.5ZM16 3.5C16 3.89397 15.9224 4.28407 15.7716 4.64805C15.6209 5.01203 15.3999 5.34274 15.1213 5.62132C14.8427 5.8999 14.512 6.12087 14.1481 6.27164C13.7841 6.4224 13.394 6.5 13 6.5C12.606 6.5 12.2159 6.4224 11.8519 6.27164C11.488 6.12087 11.1573 5.8999 10.8787 5.62132C10.6001 5.34274 10.3791 5.01203 10.2284 4.64805C10.0776 4.28407 10 3.89397 10 3.5C10 2.70435 10.3161 1.94129 10.8787 1.37868C11.4413 0.816071 12.2044 0.5 13 0.5C13.7956 0.5 14.5587 0.816071 15.1213 1.37868C15.6839 1.94129 16 2.70435 16 3.5ZM11.93 14.5C11.976 14.173 12 13.84 12 13.5C12.0023 11.9289 11.4737 10.403 10.5 9.17C11.2601 8.73116 12.1223 8.50013 13 8.50013C13.8776 8.50012 14.7399 8.73114 15.4999 9.16997C16.26 9.6088 16.8912 10.24 17.3301 11C17.7689 11.7601 18 12.6223 18 13.5V14.5H11.93ZM5 8.5C6.32608 8.5 7.59785 9.02678 8.53553 9.96447C9.47322 10.9021 10 12.1739 10 13.5V14.5H0V13.5C0 12.1739 0.526784 10.9021 1.46447 9.96447C2.40215 9.02678 3.67392 8.5 5 8.5Z" fill="white"/>
</svg>
