<svg width="12" height="17" viewBox="0 0 12 17" fill="none" xmlns="http://www.w3.org/2000/svg">
<path fill-rule="evenodd" clip-rule="evenodd" d="M2 0.5C1.46957 0.5 0.960859 0.710714 0.585786 1.08579C0.210714 1.46086 0 1.96957 0 2.5V14.5C0 15.0304 0.210714 15.5391 0.585786 15.9142C0.960859 16.2893 1.46957 16.5 2 16.5H10C10.5304 16.5 11.0391 16.2893 11.4142 15.9142C11.7893 15.5391 12 15.0304 12 14.5V2.5C12 1.96957 11.7893 1.46086 11.4142 1.08579C11.0391 0.710714 10.5304 0.5 10 0.5H2ZM3 2.5C2.73478 2.5 2.48043 2.60536 2.29289 2.79289C2.10536 2.98043 2 3.23478 2 3.5C2 3.76522 2.10536 4.01957 2.29289 4.20711C2.48043 4.39464 2.73478 4.5 3 4.5H9C9.26522 4.5 9.51957 4.39464 9.70711 4.20711C9.89464 4.01957 10 3.76522 10 3.5C10 3.23478 9.89464 2.98043 9.70711 2.79289C9.51957 2.60536 9.26522 2.5 9 2.5H3ZM9 9.5C9.26522 9.5 9.51957 9.60536 9.70711 9.79289C9.89464 9.98043 10 10.2348 10 10.5V13.5C10 13.7652 9.89464 14.0196 9.70711 14.2071C9.51957 14.3946 9.26522 14.5 9 14.5C8.73478 14.5 8.48043 14.3946 8.29289 14.2071C8.10536 14.0196 8 13.7652 8 13.5V10.5C8 10.2348 8.10536 9.98043 8.29289 9.79289C8.48043 9.60536 8.73478 9.5 9 9.5ZM6 12.5C5.73478 12.5 5.48043 12.6054 5.29289 12.7929C5.10536 12.9804 5 13.2348 5 13.5C5 13.7652 5.10536 14.0196 5.29289 14.2071C5.48043 14.3946 5.73478 14.5 6 14.5H6.01C6.27522 14.5 6.52957 14.3946 6.71711 14.2071C6.90464 14.0196 7.01 13.7652 7.01 13.5C7.01 13.2348 6.90464 12.9804 6.71711 12.7929C6.52957 12.6054 6.27522 12.5 6.01 12.5H6ZM2 13.5C2 13.2348 2.10536 12.9804 2.29289 12.7929C2.48043 12.6054 2.73478 12.5 3 12.5H3.01C3.27522 12.5 3.52957 12.6054 3.71711 12.7929C3.90464 12.9804 4.01 13.2348 4.01 13.5C4.01 13.7652 3.90464 14.0196 3.71711 14.2071C3.52957 14.3946 3.27522 14.5 3.01 14.5H3C2.73478 14.5 2.48043 14.3946 2.29289 14.2071C2.10536 14.0196 2 13.7652 2 13.5ZM3 9.5C2.73478 9.5 2.48043 9.60536 2.29289 9.79289C2.10536 9.98043 2 10.2348 2 10.5C2 10.7652 2.10536 11.0196 2.29289 11.2071C2.48043 11.3946 2.73478 11.5 3 11.5H3.01C3.27522 11.5 3.52957 11.3946 3.71711 11.2071C3.90464 11.0196 4.01 10.7652 4.01 10.5C4.01 10.2348 3.90464 9.98043 3.71711 9.79289C3.52957 9.60536 3.27522 9.5 3.01 9.5H3ZM5 10.5C5 10.2348 5.10536 9.98043 5.29289 9.79289C5.48043 9.60536 5.73478 9.5 6 9.5H6.01C6.27522 9.5 6.52957 9.60536 6.71711 9.79289C6.90464 9.98043 7.01 10.2348 7.01 10.5C7.01 10.7652 6.90464 11.0196 6.71711 11.2071C6.52957 11.3946 6.27522 11.5 6.01 11.5H6C5.73478 11.5 5.48043 11.3946 5.29289 11.2071C5.10536 11.0196 5 10.7652 5 10.5ZM9 6.5C8.73478 6.5 8.48043 6.60536 8.29289 6.79289C8.10536 6.98043 8 7.23478 8 7.5C8 7.76522 8.10536 8.01957 8.29289 8.20711C8.48043 8.39464 8.73478 8.5 9 8.5H9.01C9.27522 8.5 9.52957 8.39464 9.71711 8.20711C9.90464 8.01957 10.01 7.76522 10.01 7.5C10.01 7.23478 9.90464 6.98043 9.71711 6.79289C9.52957 6.60536 9.27522 6.5 9.01 6.5H9ZM5 7.5C5 7.23478 5.10536 6.98043 5.29289 6.79289C5.48043 6.60536 5.73478 6.5 6 6.5H6.01C6.27522 6.5 6.52957 6.60536 6.71711 6.79289C6.90464 6.98043 7.01 7.23478 7.01 7.5C7.01 7.76522 6.90464 8.01957 6.71711 8.20711C6.52957 8.39464 6.27522 8.5 6.01 8.5H6C5.73478 8.5 5.48043 8.39464 5.29289 8.20711C5.10536 8.01957 5 7.76522 5 7.5ZM3 6.5C2.73478 6.5 2.48043 6.60536 2.29289 6.79289C2.10536 6.98043 2 7.23478 2 7.5C2 7.76522 2.10536 8.01957 2.29289 8.20711C2.48043 8.39464 2.73478 8.5 3 8.5H3.01C3.27522 8.5 3.52957 8.39464 3.71711 8.20711C3.90464 8.01957 4.01 7.76522 4.01 7.5C4.01 7.23478 3.90464 6.98043 3.71711 6.79289C3.52957 6.60536 3.27522 6.5 3.01 6.5H3Z" fill="white"/>
</svg>
