<svg width="16" height="15" viewBox="0 0 16 15" fill="none" xmlns="http://www.w3.org/2000/svg">
<path d="M3.00003 1.5C3.00003 1.23478 2.89468 0.98043 2.70714 0.792893C2.5196 0.605357 2.26525 0.5 2.00003 0.5C1.73482 0.5 1.48046 0.605357 1.29293 0.792893C1.10539 0.98043 1.00003 1.23478 1.00003 1.5V8.768C0.69602 8.94354 0.443566 9.19602 0.268046 9.50004C0.0925256 9.80407 0.00012207 10.1489 0.00012207 10.5C0.00012207 10.8511 0.0925256 11.1959 0.268046 11.5C0.443566 11.804 0.69602 12.0565 1.00003 12.232V13.5C1.00003 13.7652 1.10539 14.0196 1.29293 14.2071C1.48046 14.3946 1.73482 14.5 2.00003 14.5C2.26525 14.5 2.5196 14.3946 2.70714 14.2071C2.89468 14.0196 3.00003 13.7652 3.00003 13.5V12.232C3.30405 12.0565 3.5565 11.804 3.73202 11.5C3.90754 11.1959 3.99995 10.8511 3.99995 10.5C3.99995 10.1489 3.90754 9.80407 3.73202 9.50004C3.5565 9.19602 3.30405 8.94354 3.00003 8.768V1.5ZM9.00003 1.5C9.00003 1.23478 8.89468 0.98043 8.70714 0.792893C8.5196 0.605357 8.26525 0.5 8.00003 0.5C7.73482 0.5 7.48046 0.605357 7.29293 0.792893C7.10539 0.98043 7.00003 1.23478 7.00003 1.5V2.768C6.69602 2.94354 6.44357 3.19602 6.26805 3.50004C6.09253 3.80407 6.00012 4.14894 6.00012 4.5C6.00012 4.85106 6.09253 5.19593 6.26805 5.49996C6.44357 5.80398 6.69602 6.05646 7.00003 6.232V13.5C7.00003 13.7652 7.10539 14.0196 7.29293 14.2071C7.48046 14.3946 7.73482 14.5 8.00003 14.5C8.26525 14.5 8.5196 14.3946 8.70714 14.2071C8.89468 14.0196 9.00003 13.7652 9.00003 13.5V6.232C9.30405 6.05646 9.5565 5.80398 9.73202 5.49996C9.90754 5.19593 9.99995 4.85106 9.99995 4.5C9.99995 4.14894 9.90754 3.80407 9.73202 3.50004C9.5565 3.19602 9.30405 2.94354 9.00003 2.768V1.5ZM14 0.5C14.2653 0.5 14.5196 0.605357 14.7071 0.792893C14.8947 0.98043 15 1.23478 15 1.5V8.768C15.304 8.94354 15.5565 9.19602 15.732 9.50004C15.9075 9.80407 15.9999 10.1489 15.9999 10.5C15.9999 10.8511 15.9075 11.1959 15.732 11.5C15.5565 11.804 15.304 12.0565 15 12.232V13.5C15 13.7652 14.8947 14.0196 14.7071 14.2071C14.5196 14.3946 14.2653 14.5 14 14.5C13.7348 14.5 13.4805 14.3946 13.2929 14.2071C13.1054 14.0196 13 13.7652 13 13.5V12.232C12.696 12.0565 12.4436 11.804 12.268 11.5C12.0925 11.1959 12.0001 10.8511 12.0001 10.5C12.0001 10.1489 12.0925 9.80407 12.268 9.50004C12.4436 9.19602 12.696 8.94354 13 8.768V1.5C13 1.23478 13.1054 0.98043 13.2929 0.792893C13.4805 0.605357 13.7348 0.5 14 0.5Z" fill="white"/>
</svg>
