<svg width="14" height="15" viewBox="0 0 14 15" fill="none" xmlns="http://www.w3.org/2000/svg">
<path fill-rule="evenodd" clip-rule="evenodd" d="M0 2.5C0 1.96957 0.210714 1.46086 0.585786 1.08579C0.960859 0.710714 1.46957 0.5 2 0.5H10C10.5304 0.5 11.0391 0.710714 11.4142 1.08579C11.7893 1.46086 12 1.96957 12 2.5V12.5C12 13.0304 12.2107 13.5391 12.5858 13.9142C12.9609 14.2893 13.4696 14.5 14 14.5H2C1.46957 14.5 0.960859 14.2893 0.585786 13.9142C0.210714 13.5391 0 13.0304 0 12.5V2.5ZM3 3.5H9V7.5H3V3.5ZM9 9.5H3V11.5H9V9.5Z" fill="white"/>
</svg>
